<mxfile host="app.diagrams.net" modified="2021-07-20T14:44:10.436Z" agent="5.0 (Windows NT 10.0; Win64; x64) AppleWebKit/537.36 (KHTML, like Gecko) Chrome/91.0.4472.124 Safari/537.36 Edg/91.0.864.70" etag="lSgyE3tpXNSAiwF3RCEq" version="14.9.0" type="github">
  <diagram id="BuNmfUmxMsJZTsEHqmkD" name="Page-1">
    <mxGraphModel dx="1422" dy="746" grid="1" gridSize="10" guides="1" tooltips="1" connect="1" arrows="1" fold="1" page="1" pageScale="1" pageWidth="1100" pageHeight="850" math="0" shadow="0">
      <root>
        <mxCell id="0" />
        <mxCell id="1" parent="0" />
        <mxCell id="fVhf0-IRCNoqrwi-QjWI-15" value="Microsoft Certified: Azure AI Fundamentals&amp;nbsp;" style="whiteSpace=wrap;html=1;" vertex="1" parent="1">
          <mxGeometry x="17.5" y="310" width="160" height="40" as="geometry" />
        </mxCell>
        <mxCell id="fVhf0-IRCNoqrwi-QjWI-14" value="Microsoft Certified: Azure Data Fundamentals&amp;nbsp;" style="whiteSpace=wrap;html=1;" vertex="1" parent="1">
          <mxGeometry x="17.5" y="470" width="160" height="40" as="geometry" />
        </mxCell>
        <mxCell id="fVhf0-IRCNoqrwi-QjWI-19" value="Microsoft Certified: Azure Fundamentals&amp;nbsp;" style="whiteSpace=wrap;html=1;" vertex="1" parent="1">
          <mxGeometry x="20" y="150" width="160" height="40" as="geometry" />
        </mxCell>
        <mxCell id="fVhf0-IRCNoqrwi-QjWI-20" value="Microsoft Certified: Azure Data Scientist Associate&amp;nbsp;" style="whiteSpace=wrap;html=1;" vertex="1" parent="1">
          <mxGeometry x="257.495" y="470" width="160" height="40" as="geometry" />
        </mxCell>
        <mxCell id="fVhf0-IRCNoqrwi-QjWI-22" value="Microsoft Certified: Azure Data Engineer Associate" style="whiteSpace=wrap;html=1;" vertex="1" parent="1">
          <mxGeometry x="255" y="615" width="161.25" height="40" as="geometry" />
        </mxCell>
        <mxCell id="fVhf0-IRCNoqrwi-QjWI-24" value="Microsoft Certified: Azure AI Engineer Associate&amp;nbsp;" style="whiteSpace=wrap;html=1;" vertex="1" parent="1">
          <mxGeometry x="257.5" y="310" width="161.25" height="40" as="geometry" />
        </mxCell>
        <mxCell id="fVhf0-IRCNoqrwi-QjWI-26" value="Microsoft Certified: Azure Solutions Architect Expert&amp;nbsp;" style="whiteSpace=wrap;html=1;" vertex="1" parent="1">
          <mxGeometry x="260" y="150" width="158.75" height="40" as="geometry" />
        </mxCell>
        <mxCell id="fVhf0-IRCNoqrwi-QjWI-28" value="" style="endArrow=classic;html=1;exitX=1;exitY=0.5;exitDx=0;exitDy=0;entryX=0;entryY=0.5;entryDx=0;entryDy=0;" edge="1" parent="1" source="fVhf0-IRCNoqrwi-QjWI-14" target="fVhf0-IRCNoqrwi-QjWI-22">
          <mxGeometry width="50" height="50" relative="1" as="geometry">
            <mxPoint x="497.5" y="540" as="sourcePoint" />
            <mxPoint x="547.5" y="490" as="targetPoint" />
          </mxGeometry>
        </mxCell>
        <mxCell id="fVhf0-IRCNoqrwi-QjWI-29" value="" style="endArrow=classic;html=1;exitX=1;exitY=0.5;exitDx=0;exitDy=0;" edge="1" parent="1" source="fVhf0-IRCNoqrwi-QjWI-14">
          <mxGeometry width="50" height="50" relative="1" as="geometry">
            <mxPoint x="497.5" y="540" as="sourcePoint" />
            <mxPoint x="257.5" y="490" as="targetPoint" />
          </mxGeometry>
        </mxCell>
        <mxCell id="fVhf0-IRCNoqrwi-QjWI-30" value="" style="endArrow=classic;html=1;exitX=1;exitY=0.5;exitDx=0;exitDy=0;entryX=0;entryY=0.5;entryDx=0;entryDy=0;" edge="1" parent="1" source="fVhf0-IRCNoqrwi-QjWI-15" target="fVhf0-IRCNoqrwi-QjWI-24">
          <mxGeometry width="50" height="50" relative="1" as="geometry">
            <mxPoint x="187.5" y="390" as="sourcePoint" />
            <mxPoint x="237.5" y="340" as="targetPoint" />
          </mxGeometry>
        </mxCell>
        <mxCell id="fVhf0-IRCNoqrwi-QjWI-31" value="" style="endArrow=classic;html=1;exitX=1;exitY=0.5;exitDx=0;exitDy=0;entryX=0;entryY=0.5;entryDx=0;entryDy=0;" edge="1" parent="1" source="fVhf0-IRCNoqrwi-QjWI-19" target="fVhf0-IRCNoqrwi-QjWI-26">
          <mxGeometry width="50" height="50" relative="1" as="geometry">
            <mxPoint x="180" y="220" as="sourcePoint" />
            <mxPoint x="230" y="170" as="targetPoint" />
          </mxGeometry>
        </mxCell>
        <mxCell id="fVhf0-IRCNoqrwi-QjWI-32" value="" style="shape=image;imageAspect=0;aspect=fixed;verticalLabelPosition=bottom;verticalAlign=top;gradientColor=none;image=https://images.credly.com/size/110x110/images/6a254dad-77e5-4e71-8049-94e5c7a15981/azure-fundamentals-600x600.png;" vertex="1" parent="1">
          <mxGeometry x="45" y="40" width="110" height="110" as="geometry" />
        </mxCell>
        <mxCell id="fVhf0-IRCNoqrwi-QjWI-33" value="" style="shape=image;imageAspect=0;aspect=fixed;verticalLabelPosition=bottom;verticalAlign=top;strokeColor=#000000;gradientColor=none;image=https://images.credly.com/size/110x110/images/70eb1e3f-d4de-4377-a062-b20fb29594ea/azure-data-fundamentals-600x600.png;" vertex="1" parent="1">
          <mxGeometry x="42.5" y="360" width="110" height="110" as="geometry" />
        </mxCell>
        <mxCell id="fVhf0-IRCNoqrwi-QjWI-34" value="" style="shape=image;imageAspect=0;aspect=fixed;verticalLabelPosition=bottom;verticalAlign=top;strokeColor=#000000;gradientColor=none;image=https://images.credly.com/size/110x110/images/4136ced8-75d5-4afb-8677-40b6236e2672/azure-ai-fundamentals-600x600.png;" vertex="1" parent="1">
          <mxGeometry x="42.5" y="200" width="110" height="110" as="geometry" />
        </mxCell>
        <mxCell id="fVhf0-IRCNoqrwi-QjWI-35" value="" style="shape=image;imageAspect=0;aspect=fixed;verticalLabelPosition=bottom;verticalAlign=top;strokeColor=#000000;gradientColor=none;image=https://images.credly.com/size/110x110/images/987adb7e-49be-4e24-b67e-55986bd3fe66/azure-solutions-architect-expert-600x600.png;" vertex="1" parent="1">
          <mxGeometry x="284.38" y="40" width="110" height="110" as="geometry" />
        </mxCell>
        <mxCell id="fVhf0-IRCNoqrwi-QjWI-36" value="" style="shape=image;imageAspect=0;aspect=fixed;verticalLabelPosition=bottom;verticalAlign=top;strokeColor=#000000;gradientColor=none;image=https://images.credly.com/size/110x110/images/5c8fca38-b0d2-49e5-9ad2-f3f8e79b327f/azure-data-scientist-associate-600x600.png;" vertex="1" parent="1">
          <mxGeometry x="283.13" y="360" width="110" height="110" as="geometry" />
        </mxCell>
      </root>
    </mxGraphModel>
  </diagram>
</mxfile>
